<svg width="15" height="17" viewBox="0 0 15 17" fill="none" xmlns="http://www.w3.org/2000/svg">
<path d="M12.5556 7.85535H2.44444C1.6467 7.85535 1 8.50205 1 9.29979V14.3553C1 15.1531 1.6467 15.7998 2.44444 15.7998H12.5556C13.3533 15.7998 14 15.1531 14 14.3553V9.29979C14 8.50205 13.3533 7.85535 12.5556 7.85535Z" stroke="white" stroke-width="2" stroke-linecap="round" stroke-linejoin="round"/>
<path d="M3.88892 7.85535V4.96646C3.88892 4.00873 4.26937 3.09023 4.94659 2.41302C5.6238 1.7358 6.5423 1.35535 7.50003 1.35535C8.45775 1.35535 9.37625 1.7358 10.0535 2.41302C10.7307 3.09023 11.1111 4.00873 11.1111 4.96646V7.85535" stroke="white" stroke-width="2" stroke-linecap="round" stroke-linejoin="round"/>
</svg>
